<svg width="104" height="20" viewBox="0 0 104 20" fill="none" xmlns="http://www.w3.org/2000/svg">
<path d="M80.123 20H77.4512L84.0937 0H86.7168L80.123 20ZM27.9092 7.70508C28.2335 7.198 28.6261 6.77929 29.0889 6.4502C29.8269 5.92075 30.7011 5.65627 31.7119 5.65625C32.8029 5.65625 33.7495 5.92075 34.5518 6.4502C35.37 6.96363 36.0039 7.69397 36.4531 8.64062C36.9183 9.57117 37.1514 10.6784 37.1514 11.9619C37.1513 13.2293 36.9184 14.3367 36.4531 15.2832C36.0039 16.2297 35.3699 16.9677 34.5518 17.4971C33.7495 18.0104 32.8029 18.2676 31.7119 18.2676C30.7012 18.2676 29.8269 18.0104 29.0889 17.4971C28.6121 17.1474 28.2107 16.7054 27.8809 16.1738L27.7646 17.9785H25.2139V1.13086H27.9092V7.70508ZM48.0283 5.65625C49.1995 5.65625 50.1787 5.88825 50.9648 6.35352C51.751 6.80277 52.3282 7.45333 52.6973 8.30371C53.0823 9.15403 53.2754 10.1806 53.2754 11.3838L53.2031 17.9785H50.7246L50.6445 16.4941C50.5717 16.6252 50.4945 16.7511 50.4111 16.8711C49.7533 17.8016 48.7027 18.2675 47.2588 18.2676C45.8147 18.2676 44.6909 17.9465 43.8887 17.3047C43.1026 16.6629 42.71 15.7561 42.71 14.585C42.71 13.3335 43.1267 12.3785 43.9609 11.7207C44.8113 11.0629 45.9908 10.7344 47.499 10.7344H50.5449C50.501 10.3667 50.4328 10.0374 50.3389 9.74707C50.1784 9.18562 49.9055 8.76045 49.5205 8.47168C49.1515 8.16692 48.654 8.01465 48.0283 8.01465C47.451 8.01469 46.9457 8.13453 46.5127 8.375C46.0795 8.61567 45.7101 8.9934 45.4053 9.50684L43.0469 8.64062C43.3036 8.11114 43.6404 7.62113 44.0576 7.17188C44.4907 6.70671 45.0283 6.33815 45.6699 6.06543C46.3277 5.7927 47.1139 5.65628 48.0283 5.65625ZM71.6699 5.65625C72.7448 5.65625 73.7157 5.93663 74.582 6.49805C75.4484 7.04356 76.1305 7.83798 76.6279 8.88086C77.1414 9.92378 77.3984 11.1673 77.3984 12.6113H68.3144C68.3566 13.2094 68.5112 13.7394 68.7822 14.2002C69.103 14.7294 69.5284 15.138 70.0576 15.4268C70.587 15.7155 71.1727 15.8603 71.8144 15.8604C72.5525 15.8604 73.1622 15.6998 73.6435 15.3789C74.1249 15.042 74.5026 14.6086 74.7754 14.0791L77.1572 15.0898C76.8203 15.7316 76.3879 16.294 75.8584 16.7754C75.345 17.2567 74.7268 17.6251 74.0049 17.8818C73.2989 18.1385 72.4887 18.2676 71.5742 18.2676C70.4029 18.2676 69.3599 18.0021 68.4453 17.4727C67.5468 16.9271 66.8332 16.181 66.3037 15.2344C65.7903 14.2878 65.5333 13.1972 65.5332 11.9619C65.5332 10.7265 65.7977 9.63508 66.3271 8.68848C66.8566 7.74182 67.5786 7.00312 68.4932 6.47363C69.4237 5.92817 70.4828 5.65631 71.6699 5.65625ZM90.1211 12.1055C90.1211 13.0521 90.2334 13.7908 90.458 14.3203C90.6826 14.8497 90.988 15.2182 91.373 15.4268C91.7742 15.6353 92.2317 15.7402 92.7451 15.7402C93.6594 15.7562 94.365 15.4591 94.8623 14.8496C95.2976 14.316 95.5433 13.5797 95.5976 12.6406L95.6084 12.2266V5.94434H98.2803V17.9785H95.7529L95.6416 16.2852C95.3197 16.8101 94.9263 17.2398 94.4541 17.5693C93.7803 18.0346 92.9616 18.2675 91.999 18.2676C91.0524 18.2676 90.2339 18.0745 89.5439 17.6895C88.8701 17.3044 88.3485 16.7029 87.9795 15.8848C87.6105 15.0665 87.4258 14.015 87.4258 12.7314V5.94434H90.1211V12.1055ZM41.2715 17.9785H38.5762V1.13086H41.2715V17.9785ZM57.8203 10.8418L62.3203 5.94434H65.5693L61.042 10.9287L65.9785 17.9785H62.7773L59.2939 12.8525L57.8203 14.4756V17.9785H55.124V1.13086H57.8203V10.8418ZM103.235 17.9785H100.563V5.94434H103.235V17.9785ZM48.3652 12.8037C47.2907 12.8037 46.5367 12.9561 46.1035 13.2607C45.6703 13.5496 45.4531 13.9672 45.4531 14.5127C45.4531 14.978 45.6378 15.3474 46.0068 15.6201C46.3919 15.8768 46.9219 16.0049 47.5957 16.0049C48.2052 16.0048 48.7344 15.8683 49.1836 15.5957C49.6328 15.3229 49.9781 14.9619 50.2187 14.5127C50.4755 14.0634 50.6035 13.5577 50.6035 12.9961V12.8037H48.3652ZM31.0625 8.13477C30.4528 8.13477 29.9071 8.29533 29.4258 8.61621C28.9445 8.93708 28.5677 9.38634 28.2949 9.96387C28.0382 10.5415 27.9092 11.2078 27.9092 11.9619C27.9092 12.7158 28.0382 13.3815 28.2949 13.959C28.5677 14.5365 28.9361 14.9941 29.4014 15.3311C29.8827 15.6519 30.4284 15.8125 31.0381 15.8125C31.6799 15.8125 32.2497 15.652 32.7471 15.3311C33.2444 14.9941 33.637 14.5365 33.9258 13.959C34.2306 13.3815 34.3837 12.7158 34.3838 11.9619C34.3838 11.2078 34.239 10.5415 33.9502 9.96387C33.6774 9.38628 33.2923 8.9371 32.7949 8.61621C32.2976 8.29538 31.7202 8.13481 31.0625 8.13477ZM71.5976 7.96582C71.1165 7.96589 70.6355 8.07915 70.1543 8.30371C69.6731 8.51223 69.272 8.83263 68.9512 9.26562C68.687 9.60904 68.533 10.0345 68.4863 10.541H74.4951C74.4531 10.0345 74.3149 9.60905 74.0771 9.26562C73.7883 8.83249 73.4189 8.51227 72.9697 8.30371C72.5365 8.07908 72.079 7.96582 71.5976 7.96582ZM101.911 0.505859C102.344 0.505859 102.714 0.658037 103.019 0.962891C103.339 1.26761 103.5 1.63639 103.5 2.06934C103.5 2.50255 103.339 2.88027 103.019 3.20117C102.714 3.50599 102.344 3.6582 101.911 3.6582C101.478 3.65816 101.101 3.50587 100.78 3.20117C100.475 2.88027 100.323 2.50255 100.323 2.06934C100.323 1.63634 100.476 1.26763 100.78 0.962891C101.101 0.658084 101.478 0.505907 101.911 0.505859Z" fill="black"/>
<path fill-rule="evenodd" clip-rule="evenodd" d="M9.39999 1.59983L1.46875 5.85168V14.1483L9.39999 18.4002L17.3312 14.1483V5.85168L9.39999 1.59983ZM18.8 5.31713C18.8 5.09784 18.68 4.89646 18.4881 4.79358L9.67562 0.069295C9.50327 -0.0230983 9.29671 -0.0230983 9.12437 0.069295L0.311871 4.79358C0.119959 4.89646 0 5.09784 0 5.31713V14.6829C0 14.9022 0.119959 15.1035 0.311871 15.2064L9.12437 19.9307C9.29671 20.0231 9.50327 20.0231 9.67562 19.9307L18.4881 15.2064C18.68 15.1035 18.8 14.9022 18.8 14.6829V5.31713Z" fill="#436283"/>
<path fill-rule="evenodd" clip-rule="evenodd" d="M8.14392 4.94015C8.17815 4.82445 8.27852 4.74127 8.39764 4.72986L9.35875 4.63783C9.47787 4.62643 9.59194 4.68907 9.64713 4.79621L14.0455 13.3343C14.0958 13.432 14.0883 13.5498 14.026 13.6402L13.4864 14.4234C13.4241 14.5138 13.3173 14.5619 13.209 14.5483L6.58054 13.7166C6.49478 13.7059 6.41807 13.6575 6.37082 13.5845L5.90676 12.8673C5.85951 12.7943 5.84652 12.704 5.87125 12.6205L8.14392 4.94015ZM9.08905 6.92623L7.48798 12.3369L12.1796 12.9256L9.08905 6.92623Z" fill="#436283"/>
</svg>
