<svg width="19" height="20" viewBox="0 0 19 20" fill="none" xmlns="http://www.w3.org/2000/svg">
<path fill-rule="evenodd" clip-rule="evenodd" d="M9.39999 1.59983L1.46875 5.85168V14.1483L9.39999 18.4002L17.3312 14.1483V5.85168L9.39999 1.59983ZM18.8 5.31713C18.8 5.09784 18.68 4.89646 18.4881 4.79358L9.67562 0.069295C9.50327 -0.0230983 9.29671 -0.0230983 9.12437 0.069295L0.311871 4.79358C0.119959 4.89646 0 5.09784 0 5.31713V14.6829C0 14.9022 0.119959 15.1035 0.311871 15.2064L9.12437 19.9307C9.29671 20.0231 9.50327 20.0231 9.67562 19.9307L18.4881 15.2064C18.68 15.1035 18.8 14.9022 18.8 14.6829V5.31713Z" fill="#436283"/>
<path fill-rule="evenodd" clip-rule="evenodd" d="M8.14392 4.94015C8.17815 4.82445 8.27852 4.74127 8.39764 4.72986L9.35875 4.63783C9.47787 4.62643 9.59194 4.68907 9.64713 4.79621L14.0455 13.3343C14.0958 13.432 14.0883 13.5498 14.026 13.6402L13.4864 14.4234C13.4241 14.5138 13.3173 14.5619 13.209 14.5483L6.58054 13.7166C6.49478 13.7059 6.41807 13.6575 6.37082 13.5845L5.90676 12.8673C5.85951 12.7943 5.84652 12.704 5.87125 12.6205L8.14392 4.94015ZM9.08905 6.92623L7.48798 12.3369L12.1796 12.9256L9.08905 6.92623Z" fill="#436283"/>
</svg>
